{
    "asset" : {
        "generator" : "Khronos glTF Blender I/O v1.1.46",
        "version" : "2.0"
    },
    "scene" : 0,
    "scenes" : [
        {
            "name" : "Scene",
            "nodes" : [
                0,
                21
            ]
        }
    ],
    "nodes" : [
        {
            "name" : "Camera",
            "rotation" : [
                0.483536034822464,
                0.33687159419059753,
                -0.20870360732078552,
                0.7804827094078064
            ],
            "translation" : [
                7.358891487121582,
                4.958309173583984,
                6.925790786743164
            ]
        },
        {
            "name" : "Bone015",
            "rotation" : [
                3.139164164167596e-07,
                1.8519487809953716e-07,
                -4.662694408352763e-08,
                1
            ],
            "scale" : [
                1.0000001192092896,
                1.0000001192092896,
                1
            ],
            "translation" : [
                23.632713317871094,
                8.583070666645654e-06,
                -2.031781150435563e-06
            ]
        },
        {
            "children" : [
                1
            ],
            "name" : "Bone004",
            "rotation" : [
                -4.7182854245875205e-07,
                -9.757214769479106e-08,
                0.09232082217931747,
                0.9957293272018433
            ],
            "scale" : [
                0.9999999403953552,
                0.9999999403953552,
                1
            ],
            "translation" : [
                14.648371696472168,
                1.4290856597654056e-05,
                3.162110715493327e-07
            ]
        },
        {
            "name" : "Bone009",
            "rotation" : [
                -1.9324946975984858e-08,
                -1.2782402336597443e-07,
                -1.5366823902240867e-07,
                1
            ],
            "scale" : [
                0.9999998807907104,
                0.9999998211860657,
                0.9999999403953552
            ],
            "translation" : [
                22.79757308959961,
                -1.2874606909463182e-05,
                5.522920673683984e-06
            ]
        },
        {
            "children" : [
                3
            ],
            "name" : "Bone008",
            "rotation" : [
                0.011978580616414547,
                0.045861855149269104,
                -0.25242698192596436,
                0.966454267501831
            ],
            "scale" : [
                1,
                1.0000001192092896,
                1.0000001192092896
            ],
            "translation" : [
                17.894956588745117,
                7.473596269846894e-06,
                2.090088742079388e-07
            ]
        },
        {
            "children" : [
                4
            ],
            "name" : "Bone007",
            "rotation" : [
                0.01844591647386551,
                0.029546169564127922,
                -0.6193327307701111,
                0.7843557596206665
            ],
            "scale" : [
                0.9999998211860657,
                0.9999997019767761,
                0.9999998211860657
            ],
            "translation" : [
                26.355255126953125,
                -1.7373709852108732e-05,
                -3.61421302841336e-06
            ]
        },
        {
            "children" : [
                5
            ],
            "name" : "Bone006",
            "rotation" : [
                -0.08957485109567642,
                -0.0016274811932817101,
                0.018092643469572067,
                0.9958144426345825
            ],
            "scale" : [
                1.0000001192092896,
                1.0000001192092896,
                1.0000001192092896
            ],
            "translation" : [
                23.750940322875977,
                -2.089092231472023e-05,
                -5.436894298327388e-06
            ]
        },
        {
            "children" : [
                6
            ],
            "name" : "Bone005",
            "rotation" : [
                0.5979781746864319,
                0.48574933409690857,
                -0.37619051337242126,
                0.5147333145141602
            ],
            "scale" : [
                0.9999997019767761,
                0.999999463558197,
                0.9999998211860657
            ],
            "translation" : [
                -2.087238311767578,
                1.0536096096038818,
                -5.1825103759765625
            ]
        },
        {
            "name" : "Bone014",
            "rotation" : [
                2.1141023864856834e-07,
                -1.6903504729270935e-07,
                6.053600287714289e-09,
                1
            ],
            "scale" : [
                1,
                0.9999999403953552,
                1
            ],
            "translation" : [
                0.23487091064453125,
                2.8610220397240482e-06,
                -22.79638671875
            ]
        },
        {
            "children" : [
                8
            ],
            "name" : "Bone013",
            "rotation" : [
                -0.24840936064720154,
                0.2411259114742279,
                0.04643256217241287,
                0.9370140433311462
            ],
            "scale" : [
                0.9999999403953552,
                0.9999999403953552,
                0.9999998211860657
            ],
            "translation" : [
                -7.5680389404296875,
                -2.6196947146672755e-05,
                -16.21590232849121
            ]
        },
        {
            "children" : [
                9
            ],
            "name" : "Bone012",
            "rotation" : [
                -0.2694491446018219,
                0.5329282879829407,
                0.5561497211456299,
                0.5779984593391418
            ],
            "scale" : [
                0.9999998211860657,
                1.0000001192092896,
                1
            ],
            "translation" : [
                -25.951828002929688,
                4.643947249860503e-05,
                4.593685150146484
            ]
        },
        {
            "children" : [
                10
            ],
            "name" : "Bone011",
            "rotation" : [
                0.08434028923511505,
                -0.022319721058011055,
                -0.016065549105405807,
                0.9960574507713318
            ],
            "scale" : [
                0.9999999403953552,
                1,
                1
            ],
            "translation" : [
                -23.5395565032959,
                -6.53078245704819e-07,
                3.1616950035095215
            ]
        },
        {
            "children" : [
                11
            ],
            "name" : "Bone010",
            "rotation" : [
                0.3350842595100403,
                0.4829946458339691,
                -0.6164892315864563,
                0.5238088369369507
            ],
            "scale" : [
                1,
                0.9999998211860657,
                0.9999997615814209
            ],
            "translation" : [
                -2.0872390270233154,
                1.053604006767273,
                5.182493686676025
            ]
        },
        {
            "children" : [
                2,
                7,
                12
            ],
            "name" : "Bone003",
            "rotation" : [
                -4.772482498083264e-07,
                4.7327947783060154e-08,
                0.03399069979786873,
                0.9994221329689026
            ],
            "translation" : [
                22.758914947509766,
                7.985522097442299e-05,
                -6.792639624109142e-07
            ]
        },
        {
            "children" : [
                13
            ],
            "name" : "Bone002",
            "rotation" : [
                4.471930026284099e-08,
                -5.976108052863083e-09,
                0.058922600001096725,
                0.9982625842094421
            ],
            "scale" : [
                0.9999998211860657,
                0.9999998807907104,
                1
            ],
            "translation" : [
                27.693166732788086,
                -4.585667920764536e-05,
                -1.282147309211723e-06
            ]
        },
        {
            "name" : "Bone019",
            "rotation" : [
                -1.5801862111018174e-14,
                2.914255503583263e-10,
                7.450579886381092e-08,
                1
            ],
            "scale" : [
                1.0000001192092896,
                1.0000001192092896,
                1
            ],
            "translation" : [
                20.58142852783203,
                -7.629395440744702e-06,
                -1.9773005988099612e-06
            ]
        },
        {
            "children" : [
                15
            ],
            "name" : "Bone018",
            "rotation" : [
                -1.7390749951218254e-10,
                -8.242434290650635e-09,
                -0.07657479494810104,
                0.9970638751983643
            ],
            "scale" : [
                1.0000001192092896,
                1.000000238418579,
                1
            ],
            "translation" : [
                36.798404693603516,
                -2.4794595447019674e-05,
                -2.9309503588592634e-06
            ]
        },
        {
            "children" : [
                16
            ],
            "name" : "Bone017",
            "rotation" : [
                1.580039565851621e-08,
                1.9826838837389005e-08,
                -0.17212243378162384,
                0.9850755929946899
            ],
            "scale" : [
                1.0000001192092896,
                1.000000238418579,
                1
            ],
            "translation" : [
                25.17371940612793,
                9.442424197914079e-05,
                -2.996236389662954e-06
            ]
        },
        {
            "children" : [
                17
            ],
            "name" : "Bone016",
            "rotation" : [
                2.511973207219853e-08,
                8.063423706516915e-08,
                0.9902220368385315,
                0.13950084149837494
            ],
            "scale" : [
                1.0000017881393433,
                0.9999999403953552,
                1
            ],
            "translation" : [
                -1.359614429929934e-07,
                -1.9073488601861754e-06,
                -5.649838641375027e-08
            ]
        },
        {
            "children" : [
                14,
                18
            ],
            "name" : "Bone001",
            "rotation" : [
                -0.4768369197845459,
                -0.5221365690231323,
                0.4768368899822235,
                0.5221365094184875
            ],
            "translation" : [
                -1.0896336561927455e-06,
                88.51002502441406,
                24.927902221679688
            ]
        },
        {
            "mesh" : 0,
            "name" : "Cartoon_Ghost",
            "skin" : 0
        },
        {
            "children" : [
                20,
                19
            ],
            "name" : "Armature",
            "scale" : [
                0.05999999865889549,
                0.05999999865889549,
                0.05999999865889549
            ]
        }
    ],
    "materials" : [
        {
            "doubleSided" : true,
            "emissiveFactor" : [
                0.49692320823669434,
                0.49692320823669434,
                0.49692320823669434
            ],
            "name" : "Cartoon_Ghost_Shader",
            "pbrMetallicRoughness" : {
                "metallicFactor" : 0.5,
                "roughnessFactor" : 0.8318207263946533
            }
        }
    ],
    "meshes" : [
        {
            "name" : "Mesh",
            "primitives" : [
                {
                    "attributes" : {
                        "POSITION" : 0,
                        "NORMAL" : 1,
                        "TEXCOORD_0" : 2,
                        "COLOR_0" : 3,
                        "JOINTS_0" : 4,
                        "WEIGHTS_0" : 5
                    },
                    "indices" : 6,
                    "material" : 0
                }
            ]
        }
    ],
    "skins" : [
        {
            "inverseBindMatrices" : 7,
            "joints" : [
                19,
                14,
                13,
                2,
                1,
                7,
                6,
                5,
                4,
                3,
                12,
                11,
                10,
                9,
                8,
                18,
                17,
                16,
                15
            ],
            "name" : "Armature"
        }
    ],
    "accessors" : [
        {
            "bufferView" : 0,
            "componentType" : 5126,
            "count" : 30338,
            "max" : [
                5.650767803192139,
                10.200228691101074,
                4.4099812507629395
            ],
            "min" : [
                -5.649918079376221,
                0.00022964341042097658,
                -4.4100189208984375
            ],
            "type" : "VEC3"
        },
        {
            "bufferView" : 1,
            "componentType" : 5126,
            "count" : 30338,
            "type" : "VEC3"
        },
        {
            "bufferView" : 2,
            "componentType" : 5126,
            "count" : 30338,
            "type" : "VEC2"
        },
        {
            "bufferView" : 3,
            "componentType" : 5126,
            "count" : 30338,
            "type" : "VEC4"
        },
        {
            "bufferView" : 4,
            "componentType" : 5123,
            "count" : 30338,
            "type" : "VEC4"
        },
        {
            "bufferView" : 5,
            "componentType" : 5126,
            "count" : 30338,
            "type" : "VEC4"
        },
        {
            "bufferView" : 6,
            "componentType" : 5123,
            "count" : 177096,
            "type" : "SCALAR"
        },
        {
            "bufferView" : 7,
            "componentType" : 5126,
            "count" : 19,
            "type" : "MAT4"
        }
    ],
    "bufferViews" : [
        {
            "buffer" : 0,
            "byteLength" : 364056,
            "byteOffset" : 0
        },
        {
            "buffer" : 0,
            "byteLength" : 364056,
            "byteOffset" : 364056
        },
        {
            "buffer" : 0,
            "byteLength" : 242704,
            "byteOffset" : 728112
        },
        {
            "buffer" : 0,
            "byteLength" : 485408,
            "byteOffset" : 970816
        },
        {
            "buffer" : 0,
            "byteLength" : 242704,
            "byteOffset" : 1456224
        },
        {
            "buffer" : 0,
            "byteLength" : 485408,
            "byteOffset" : 1698928
        },
        {
            "buffer" : 0,
            "byteLength" : 354192,
            "byteOffset" : 2184336
        },
        {
            "buffer" : 0,
            "byteLength" : 1216,
            "byteOffset" : 2538528
        }
    ],
    "buffers" : [
        {
            "byteLength" : 2539744,
            "uri" : "data:application/octet-stream;base64,"
        }
    ]
}
